<svg width="70" height="48" viewBox="0 0 70 48" fill="none" xmlns="http://www.w3.org/2000/svg">
<path d="M24.3648 5.91338C24.3809 5.64956 24.5996 5.44385 24.8639 5.44385H45.1361C45.4004 5.44385 45.6191 5.64956 45.6352 5.91338L46.4362 19.0351C46.4537 19.3227 46.2252 19.5656 45.9371 19.5656H24.0629C23.7748 19.5656 23.5463 19.3227 23.5638 19.0351L24.3648 5.91338Z" stroke="black"/>
<path d="M29.4615 8.07235L29.4615 3.90085C29.4615 2.17295 31.9412 0.772217 35 0.772217C38.0588 0.772217 40.5385 2.17295 40.5385 3.90085V8.07235" stroke="black" stroke-linecap="round"/>
<path d="M2.1123 44.5034H1.41504V34.5093H6.89062V35.1519H2.1123V44.5034ZM14.335 47.0259H13.665V44.5034H7.97754V47.0259H7.30762V43.8608H7.7998C8.4196 42.9904 8.89811 41.981 9.23535 40.8325C9.57259 39.6841 9.75033 38.4308 9.76855 37.0728H13.3438V43.8608H14.335V47.0259ZM12.667 43.8608V37.7017H10.3564C10.2471 40.1672 9.65007 42.2202 8.56543 43.8608H12.667ZM18.915 44.6401C17.835 44.6401 16.9919 44.3075 16.3857 43.6421C15.7842 42.9767 15.4834 42.0448 15.4834 40.8462C15.4834 39.6613 15.7751 38.7134 16.3584 38.0024C16.9417 37.2869 17.7279 36.9292 18.7168 36.9292C19.5918 36.9292 20.2822 37.2345 20.7881 37.8452C21.2939 38.4559 21.5469 39.2853 21.5469 40.3335V40.8804H16.1943C16.2035 41.9012 16.4404 42.6805 16.9053 43.2183C17.3747 43.756 18.0446 44.0249 18.915 44.0249C19.3389 44.0249 19.7103 43.9953 20.0293 43.936C20.3529 43.8768 20.7607 43.7492 21.2529 43.5532V44.1685C20.8337 44.3507 20.4463 44.4738 20.0908 44.5376C19.7354 44.606 19.3434 44.6401 18.915 44.6401ZM18.7168 37.5308C18.0013 37.5308 17.4271 37.7677 16.9941 38.2417C16.5612 38.7111 16.3083 39.3901 16.2354 40.2788H20.8291C20.8291 39.4175 20.6423 38.7453 20.2686 38.2622C19.8949 37.7746 19.3776 37.5308 18.7168 37.5308ZM31.2676 37.0728H32.1084L28.7793 40.6685L32.3477 44.5034H31.4385L27.9248 40.7368V44.5034H27.2344V37.0728H27.9248V40.6821L31.2676 37.0728ZM32.416 37.0728H33.1133L34.6855 41.2427C35.1641 42.5233 35.4671 43.3869 35.5947 43.8335H35.6357C35.8271 43.2456 36.1393 42.3683 36.5723 41.2017L38.1445 37.0728H38.8418L35.5127 45.7065C35.2438 46.4084 35.0182 46.8823 34.8359 47.1284C34.6536 47.3745 34.4395 47.5591 34.1934 47.6821C33.9518 47.8052 33.6579 47.8667 33.3115 47.8667C33.0518 47.8667 32.7624 47.8188 32.4434 47.7231V47.1353C32.7077 47.2082 32.9925 47.2446 33.2979 47.2446C33.5303 47.2446 33.7354 47.1899 33.9131 47.0806C34.0908 46.9712 34.2503 46.8003 34.3916 46.5679C34.5374 46.34 34.7038 45.9754 34.8906 45.4741C35.082 44.9774 35.2051 44.6538 35.2598 44.5034L32.416 37.0728ZM40.7627 44.5034H40.0859V37.0728H46.0127V44.5034H45.3359V37.7153H40.7627V44.5034ZM49.1504 37.0728V42.4458L49.1094 43.8472L53.5186 37.0728H54.4209V44.5034H53.7715V39.1646L53.7988 37.729L49.3896 44.5034H48.5078V37.0728H49.1504ZM61.6328 37.6606H59.1582V44.5034H58.4883V37.6606H55.9521V37.0728H61.6328V37.6606ZM63.8408 40.2036H66.459C68.2044 40.2036 69.0771 40.8895 69.0771 42.2612C69.0771 42.9676 68.8333 43.519 68.3457 43.9155C67.8581 44.3075 67.1585 44.5034 66.2471 44.5034H63.1641V37.0728H63.8408V40.2036ZM63.8408 40.8462V43.8608H66.3564C67.0036 43.8608 67.498 43.7241 67.8398 43.4507C68.1862 43.1772 68.3594 42.7762 68.3594 42.2476C68.3594 41.7554 68.2067 41.3999 67.9014 41.1812C67.596 40.9578 67.0674 40.8462 66.3154 40.8462H63.8408Z" fill="black"/>
</svg>
