<svg width="92" height="67" viewBox="0 0 92 67" fill="none" xmlns="http://www.w3.org/2000/svg">
<path d="M34.4615 7.89868V13.4013C34.4615 14.1422 35.2392 14.6258 35.9037 14.2982L41.3846 11.5962" stroke="black" stroke-linecap="round"/>
<path fill-rule="evenodd" clip-rule="evenodd" d="M38 1.50366H54C55.6569 1.50366 57 2.84681 57 4.50366V7.8805C57 9.53735 55.6569 10.8805 54 10.8805H41.3846V11.8805H54C56.2091 11.8805 58 10.0896 58 7.8805V4.50366C58 2.29452 56.2091 0.503662 54 0.503662H38C35.7909 0.503662 34 2.29452 34 4.50366V7.8805C34 7.88657 34 7.89264 34 7.8987H35.0001C35 7.89264 35 7.88657 35 7.8805V4.50366C35 2.84681 36.3431 1.50366 38 1.50366Z" fill="black"/>
<line x1="38.1923" y1="3.9856" x2="53.8076" y2="3.9856" stroke="black" stroke-linecap="round"/>
<line x1="38.1923" y1="6.26099" x2="53.8076" y2="6.26099" stroke="black" stroke-linecap="round"/>
<line x1="38.1923" y1="8.53638" x2="48.2692" y2="8.53638" stroke="black" stroke-linecap="round"/>
<path d="M8.34766 41.7698H7.39746L2.45508 36.677V41.7698H1.75781V31.7756H2.45508V36.6155L7.26074 31.7756H8.18359L3.35059 36.6155L8.34766 41.7698ZM15.7441 38.0442C15.7441 39.2564 15.4502 40.2043 14.8623 40.8879C14.2744 41.567 13.4632 41.9065 12.4287 41.9065C11.777 41.9065 11.2028 41.7493 10.7061 41.4348C10.2093 41.1204 9.82878 40.6692 9.56445 40.0813C9.30013 39.4934 9.16797 38.8144 9.16797 38.0442C9.16797 36.8319 9.46191 35.8886 10.0498 35.2141C10.6377 34.5351 11.4443 34.1956 12.4697 34.1956C13.4906 34.1956 14.2904 34.5396 14.8691 35.2278C15.4525 35.9114 15.7441 36.8502 15.7441 38.0442ZM9.87891 38.0442C9.87891 39.065 10.1022 39.8625 10.5488 40.4368C11 41.0064 11.6357 41.2913 12.4561 41.2913C13.2764 41.2913 13.9098 41.0064 14.3564 40.4368C14.8076 39.8625 15.0332 39.065 15.0332 38.0442C15.0332 37.0188 14.8053 36.2236 14.3496 35.6584C13.8984 35.0933 13.2627 34.8108 12.4424 34.8108C11.6221 34.8108 10.9886 35.0933 10.542 35.6584C10.0999 36.219 9.87891 37.0142 9.87891 38.0442ZM18.4785 34.3391V37.5999H23.1953V34.3391H23.8652V41.7698H23.1953V38.1877H18.4785V41.7698H17.8018V34.3391H18.4785ZM29.3271 41.9065C28.2653 41.9065 27.4336 41.5715 26.832 40.9016C26.2305 40.2317 25.9297 39.2974 25.9297 38.0989C25.9297 36.8684 26.2419 35.9114 26.8662 35.2278C27.4906 34.5396 28.3451 34.1956 29.4297 34.1956C30.0723 34.1956 30.6875 34.3072 31.2754 34.5305L31.0908 35.1321C30.4482 34.9179 29.89 34.8108 29.416 34.8108C28.5046 34.8108 27.8141 35.0933 27.3447 35.6584C26.8753 36.219 26.6406 37.0279 26.6406 38.0852C26.6406 39.0878 26.8753 39.8739 27.3447 40.4436C27.8141 41.0087 28.4704 41.2913 29.3135 41.2913C29.988 41.2913 30.6146 41.1705 31.1934 40.929V41.5579C30.7194 41.7903 30.0973 41.9065 29.3271 41.9065ZM31.7744 34.3391H32.4717L34.0439 38.509C34.5225 39.7896 34.8255 40.6532 34.9531 41.0999H34.9941C35.1855 40.512 35.4977 39.6347 35.9307 38.468L37.5029 34.3391H38.2002L34.8711 42.9729C34.6022 43.6747 34.3766 44.1487 34.1943 44.3948C34.012 44.6409 33.7979 44.8254 33.5518 44.9485C33.3102 45.0715 33.0163 45.1331 32.6699 45.1331C32.4102 45.1331 32.1208 45.0852 31.8018 44.9895V44.4016C32.0661 44.4745 32.3509 44.511 32.6562 44.511C32.8887 44.511 33.0938 44.4563 33.2715 44.3469C33.4492 44.2375 33.6087 44.0667 33.75 43.8342C33.8958 43.6064 34.0622 43.2418 34.249 42.7405C34.4404 42.2437 34.5635 41.9202 34.6182 41.7698L31.7744 34.3391ZM44.585 41.7698H43.915V34.968H41.2832C41.1465 36.7681 40.9779 38.1422 40.7773 39.0901C40.5814 40.0334 40.3262 40.7284 40.0117 41.175C39.7018 41.6171 39.2985 41.8381 38.8018 41.8381C38.624 41.8381 38.4691 41.8199 38.3369 41.7834V41.1682C38.4235 41.1956 38.5465 41.2092 38.7061 41.2092C39.221 41.2092 39.6357 40.6669 39.9502 39.5823C40.2692 38.4931 40.5107 36.7454 40.6748 34.3391H44.585V41.7698ZM47.75 37.47H50.3682C52.1136 37.47 52.9863 38.1558 52.9863 39.5276C52.9863 40.234 52.7425 40.7854 52.2549 41.1819C51.7673 41.5738 51.0677 41.7698 50.1562 41.7698H47.0732V34.3391H47.75V37.47ZM47.75 38.1125V41.1272H50.2656C50.9128 41.1272 51.4072 40.9905 51.749 40.717C52.0954 40.4436 52.2686 40.0426 52.2686 39.5139C52.2686 39.0217 52.1159 38.6663 51.8105 38.4475C51.5052 38.2242 50.9766 38.1125 50.2246 38.1125H47.75ZM59.7607 34.927H57.2861V41.7698H56.6162V34.927H54.0801V34.3391H59.7607V34.927ZM65.8037 41.7698L65.6328 40.594H65.5781C65.2044 41.0725 64.8193 41.412 64.4229 41.6125C64.0309 41.8085 63.5661 41.9065 63.0283 41.9065C62.2992 41.9065 61.7318 41.7196 61.3262 41.3459C60.9206 40.9722 60.7178 40.455 60.7178 39.7942C60.7178 39.0696 61.0186 38.5068 61.6201 38.1057C62.2262 37.7047 63.1012 37.4928 64.2451 37.47L65.6602 37.429V36.9368C65.6602 36.2304 65.5166 35.6972 65.2295 35.3372C64.9424 34.9771 64.4798 34.7971 63.8418 34.7971C63.1536 34.7971 62.4404 34.9885 61.7021 35.3713L61.4492 34.7834C62.265 34.4006 63.0716 34.2092 63.8691 34.2092C64.6849 34.2092 65.2933 34.4211 65.6943 34.845C66.0999 35.2688 66.3027 35.9296 66.3027 36.8274V41.7698H65.8037ZM63.0693 41.2913C63.8623 41.2913 64.4867 41.0657 64.9424 40.6145C65.4027 40.1588 65.6328 39.5276 65.6328 38.7209V37.9895L64.334 38.0442C63.2904 38.0943 62.5452 38.2584 62.0986 38.5364C61.6566 38.8098 61.4355 39.2382 61.4355 39.8215C61.4355 40.2864 61.5768 40.6487 61.8594 40.9084C62.1465 41.1637 62.5498 41.2913 63.0693 41.2913ZM75.4971 44.2922H74.8203V41.7698H68.7158V34.3391H69.3926V41.1272H73.8291V34.3391H74.499V41.1272H75.4971V44.2922ZM77.7256 34.3391V39.7122L77.6846 41.1135L82.0938 34.3391H82.9961V41.7698H82.3467V36.4309L82.374 34.9954L77.9648 41.7698H77.083V34.3391H77.7256ZM85.3818 41.7698H84.5273L86.7695 38.5637C86.0859 38.4361 85.5915 38.1991 85.2861 37.8528C84.9854 37.5064 84.835 37.0621 84.835 36.5198C84.835 35.8453 85.0605 35.3144 85.5117 34.927C85.9674 34.5351 86.5781 34.3391 87.3438 34.3391H90.4062V41.7698H89.7363V38.6458H87.4668L85.3818 41.7698ZM85.5459 36.4924C85.5459 37.0028 85.71 37.3834 86.0381 37.634C86.3708 37.8801 86.8698 38.0032 87.5352 38.0032H89.7363V34.9817H87.3301C86.765 34.9817 86.3252 35.1116 86.0107 35.3713C85.7008 35.6265 85.5459 36.0002 85.5459 36.4924ZM22.3955 57.1301C22.3955 57.5995 22.2793 57.9687 22.0469 58.2375C21.8145 58.5019 21.4362 58.6864 20.9121 58.7913V58.8391C21.5091 58.9075 21.9398 59.0806 22.2041 59.3586C22.473 59.6321 22.6074 60.0263 22.6074 60.5413C22.6074 61.2568 22.3704 61.8082 21.8965 62.1956C21.4271 62.5784 20.7389 62.7698 19.832 62.7698H16.6943V55.3391H19.8457C20.6934 55.3391 21.3291 55.4918 21.7529 55.7971C22.1813 56.1025 22.3955 56.5468 22.3955 57.1301ZM21.8896 60.5276C21.8896 59.6161 21.1901 59.1604 19.791 59.1604H17.3711V62.1272H19.8867C21.222 62.1272 21.8896 61.594 21.8896 60.5276ZM21.6777 57.1848C21.6777 56.7519 21.5228 56.4443 21.2129 56.262C20.903 56.0751 20.4382 55.9817 19.8184 55.9817H17.3711V58.5247H19.7363C20.429 58.5247 20.9258 58.4176 21.2266 58.2034C21.5273 57.9892 21.6777 57.6497 21.6777 57.1848ZM27.625 62.9065C26.5449 62.9065 25.7018 62.5738 25.0957 61.9084C24.4941 61.2431 24.1934 60.3111 24.1934 59.1125C24.1934 57.9277 24.485 56.9797 25.0684 56.2688C25.6517 55.5533 26.4378 55.1956 27.4268 55.1956C28.3018 55.1956 28.9922 55.5009 29.498 56.1116C30.0039 56.7222 30.2568 57.5517 30.2568 58.5999V59.1467H24.9043C24.9134 60.1676 25.1504 60.9469 25.6152 61.4846C26.0846 62.0224 26.7546 62.2913 27.625 62.2913C28.0488 62.2913 28.4202 62.2616 28.7393 62.2024C29.0628 62.1431 29.4707 62.0155 29.9629 61.8196V62.4348C29.5436 62.6171 29.1562 62.7402 28.8008 62.804C28.4453 62.8723 28.0534 62.9065 27.625 62.9065ZM27.4268 55.7971C26.7113 55.7971 26.137 56.0341 25.7041 56.5081C25.2712 56.9775 25.0182 57.6565 24.9453 58.5452H29.5391C29.5391 57.6838 29.3522 57.0116 28.9785 56.5286C28.6048 56.0409 28.0876 55.7971 27.4268 55.7971ZM37.0244 55.927H34.5498V62.7698H33.8799V55.927H31.3438V55.3391H37.0244V55.927ZM44.2568 57.1301C44.2568 57.5995 44.1406 57.9687 43.9082 58.2375C43.6758 58.5019 43.2975 58.6864 42.7734 58.7913V58.8391C43.3704 58.9075 43.8011 59.0806 44.0654 59.3586C44.3343 59.6321 44.4688 60.0263 44.4688 60.5413C44.4688 61.2568 44.2318 61.8082 43.7578 62.1956C43.2884 62.5784 42.6003 62.7698 41.6934 62.7698H38.5557V55.3391H41.707C42.5547 55.3391 43.1904 55.4918 43.6143 55.7971C44.0426 56.1025 44.2568 56.5468 44.2568 57.1301ZM43.751 60.5276C43.751 59.6161 43.0514 59.1604 41.6523 59.1604H39.2324V62.1272H41.748C43.0833 62.1272 43.751 61.594 43.751 60.5276ZM43.5391 57.1848C43.5391 56.7519 43.3841 56.4443 43.0742 56.262C42.7643 56.0751 42.2995 55.9817 41.6797 55.9817H39.2324V58.5247H41.5977C42.2904 58.5247 42.7871 58.4176 43.0879 58.2034C43.3887 57.9892 43.5391 57.6497 43.5391 57.1848ZM49.6641 62.9065C48.5202 62.9065 47.6862 62.4781 47.1621 61.6213H47.1143L47.1348 62.1956C47.153 62.5328 47.1621 62.9019 47.1621 63.303V66.1331H46.4854V55.3391H47.0596L47.1895 56.3987H47.2305C47.7409 55.5966 48.5566 55.1956 49.6777 55.1956C50.6803 55.1956 51.4437 55.526 51.9678 56.1868C52.4964 56.843 52.7607 57.8 52.7607 59.0579C52.7607 60.2792 52.4827 61.2271 51.9268 61.9016C51.3753 62.5715 50.6211 62.9065 49.6641 62.9065ZM49.6504 62.3049C50.4115 62.3049 50.9993 62.0224 51.4141 61.4573C51.8333 60.8922 52.043 60.1015 52.043 59.0852C52.043 56.9023 51.2546 55.8108 49.6777 55.8108C48.8118 55.8108 48.1761 56.05 47.7705 56.5286C47.3649 57.0025 47.1621 57.7773 47.1621 58.8528V59.0715C47.1621 60.2336 47.3558 61.0631 47.7432 61.5598C48.1351 62.0566 48.7708 62.3049 49.6504 62.3049ZM59.3369 62.7698L59.166 61.594H59.1113C58.7376 62.0725 58.3525 62.412 57.9561 62.6125C57.5641 62.8085 57.0993 62.9065 56.5615 62.9065C55.8324 62.9065 55.265 62.7196 54.8594 62.3459C54.4538 61.9722 54.251 61.455 54.251 60.7942C54.251 60.0696 54.5518 59.5068 55.1533 59.1057C55.7594 58.7047 56.6344 58.4928 57.7783 58.47L59.1934 58.429V57.9368C59.1934 57.2304 59.0498 56.6972 58.7627 56.3372C58.4756 55.9771 58.013 55.7971 57.375 55.7971C56.6868 55.7971 55.9736 55.9885 55.2354 56.3713L54.9824 55.7834C55.7982 55.4006 56.6048 55.2092 57.4023 55.2092C58.2181 55.2092 58.8265 55.4211 59.2275 55.845C59.6331 56.2688 59.8359 56.9296 59.8359 57.8274V62.7698H59.3369ZM56.6025 62.2913C57.3955 62.2913 58.0199 62.0657 58.4756 61.6145C58.9359 61.1588 59.166 60.5276 59.166 59.7209V58.9895L57.8672 59.0442C56.8236 59.0943 56.0785 59.2584 55.6318 59.5364C55.1898 59.8098 54.9688 60.2382 54.9688 60.8215C54.9688 61.2864 55.11 61.6487 55.3926 61.9084C55.6797 62.1637 56.083 62.2913 56.6025 62.2913ZM62.7959 55.3391V57.8274C62.7959 58.4563 62.9486 58.9097 63.2539 59.1877C63.5592 59.4657 64.0286 59.6047 64.6621 59.6047C65.1087 59.6047 65.5348 59.525 65.9404 59.3655C66.346 59.206 66.7676 58.9508 67.2051 58.5999V55.3391H67.8818V62.7698H67.2051V59.2424C66.7493 59.5933 66.3005 59.844 65.8584 59.9944C65.4209 60.1448 64.9469 60.22 64.4365 60.22C63.6755 60.22 63.099 60.0217 62.707 59.6252C62.3197 59.2288 62.126 58.6568 62.126 57.9094V55.3391H62.7959ZM74.8818 62.7698L74.7109 61.594H74.6562C74.2826 62.0725 73.8975 62.412 73.501 62.6125C73.109 62.8085 72.6442 62.9065 72.1064 62.9065C71.3773 62.9065 70.8099 62.7196 70.4043 62.3459C69.9987 61.9722 69.7959 61.455 69.7959 60.7942C69.7959 60.0696 70.0967 59.5068 70.6982 59.1057C71.3044 58.7047 72.1794 58.4928 73.3232 58.47L74.7383 58.429V57.9368C74.7383 57.2304 74.5947 56.6972 74.3076 56.3372C74.0205 55.9771 73.5579 55.7971 72.9199 55.7971C72.2318 55.7971 71.5186 55.9885 70.7803 56.3713L70.5273 55.7834C71.3431 55.4006 72.1497 55.2092 72.9473 55.2092C73.763 55.2092 74.3714 55.4211 74.7725 55.845C75.1781 56.2688 75.3809 56.9296 75.3809 57.8274V62.7698H74.8818ZM72.1475 62.2913C72.9404 62.2913 73.5648 62.0657 74.0205 61.6145C74.4808 61.1588 74.7109 60.5276 74.7109 59.7209V58.9895L73.4121 59.0442C72.3685 59.0943 71.6234 59.2584 71.1768 59.5364C70.7347 59.8098 70.5137 60.2382 70.5137 60.8215C70.5137 61.2864 70.6549 61.6487 70.9375 61.9084C71.2246 62.1637 71.6279 62.2913 72.1475 62.2913Z" fill="black"/>
</svg>
