<svg width="40" height="30" viewBox="0 0 40 30" fill="none" xmlns="http://www.w3.org/2000/svg">
<line x1="8.5" y1="1.23389" x2="31.5" y2="1.23389" stroke="black" stroke-linecap="round"/>
<line x1="8.5" y1="4.31519" x2="31.5" y2="4.31519" stroke="black" stroke-linecap="round"/>
<line x1="8.5" y1="8.0127" x2="24.5" y2="8.0127" stroke="black" stroke-linecap="round"/>
<path d="M6.06152 29.4424L2.33594 20.2139H2.28125C2.31771 20.779 2.33594 21.3577 2.33594 21.9502V29.4424H1.66602V19.4482H2.74609L6.28711 28.2393H6.32812L9.86914 19.4482H10.9219V29.4424H10.2178V21.8682C10.2178 21.3395 10.2451 20.7926 10.2998 20.2275H10.2451L6.50586 29.4424H6.06152ZM16.582 29.5791C15.502 29.5791 14.6589 29.2464 14.0527 28.5811C13.4512 27.9157 13.1504 26.9837 13.1504 25.7852C13.1504 24.6003 13.4421 23.6523 14.0254 22.9414C14.6087 22.2259 15.3949 21.8682 16.3838 21.8682C17.2588 21.8682 17.9492 22.1735 18.4551 22.7842C18.9609 23.3949 19.2139 24.2243 19.2139 25.2725V25.8193H13.8613C13.8704 26.8402 14.1074 27.6195 14.5723 28.1572C15.0417 28.695 15.7116 28.9639 16.582 28.9639C17.0059 28.9639 17.3773 28.9342 17.6963 28.875C18.0199 28.8158 18.4277 28.6882 18.9199 28.4922V29.1074C18.5007 29.2897 18.1133 29.4128 17.7578 29.4766C17.4023 29.5449 17.0104 29.5791 16.582 29.5791ZM16.3838 22.4697C15.6683 22.4697 15.0941 22.7067 14.6611 23.1807C14.2282 23.6501 13.9753 24.3291 13.9023 25.2178H18.4961C18.4961 24.3564 18.3092 23.6842 17.9355 23.2012C17.5618 22.7135 17.0446 22.4697 16.3838 22.4697ZM21.9414 22.0117V25.2725H26.6582V22.0117H27.3281V29.4424H26.6582V25.8604H21.9414V29.4424H21.2646V22.0117H21.9414ZM38.9424 25.7168C38.9424 26.929 38.6689 27.877 38.1221 28.5605C37.5798 29.2396 36.8346 29.5791 35.8867 29.5791C34.9935 29.5791 34.2734 29.2441 33.7266 28.5742C33.1842 27.9043 32.9062 26.9997 32.8926 25.8604H30.5V29.4424H29.8232V22.0117H30.5V25.2725H32.9062C32.9701 24.2015 33.2663 23.3675 33.7949 22.7705C34.3281 22.1689 35.0391 21.8682 35.9277 21.8682C36.8574 21.8682 37.5911 22.2122 38.1289 22.9004C38.6712 23.584 38.9424 24.5228 38.9424 25.7168ZM33.6035 25.7168C33.6035 26.7376 33.804 27.5352 34.2051 28.1094C34.6107 28.679 35.1803 28.9639 35.9141 28.9639C36.6478 28.9639 37.2152 28.6768 37.6162 28.1025C38.0218 27.5283 38.2246 26.7331 38.2246 25.7168C38.2246 24.696 38.0218 23.903 37.6162 23.3379C37.2106 22.7682 36.6387 22.4834 35.9004 22.4834C35.1667 22.4834 34.5993 22.766 34.1982 23.3311C33.8018 23.8916 33.6035 24.6868 33.6035 25.7168Z" fill="black"/>
</svg>
